<?xml version="1.0" encoding="UTF-8" standalone="no"?>
<!DOCTYPE svg PUBLIC "-//W3C//DTD SVG 1.1//EN" "http://www.w3.org/Graphics/SVG/1.1/DTD/svg11.dtd">
<svg width="100%" height="100%" viewBox="0 0 1536 1793" version="1.1" xmlns="http://www.w3.org/2000/svg" xmlns:xlink="http://www.w3.org/1999/xlink" xml:space="preserve" xmlns:serif="http://www.serif.com/" style="fill-rule:evenodd;clip-rule:evenodd;stroke-linejoin:round;stroke-miterlimit:2;">
    <g transform="matrix(0.0799978,0,0,0.0800006,-127.997,0)">
        <g id="Inkscape-0.92.3--2405546--2018-03-11-" serif:id="Inkscape 0.92.3 (2405546, 2018-03-11)">
            <path d="M11200,9600C13175,9600 15021,9421 16738,9063C18454,8704 19808,8175 20800,7475L20800,9600C20800,10175 20371,10708 19513,11200C18654,11692 17488,12081 16013,12369C14538,12656 12933,12800 11200,12800C9467,12800 7863,12656 6388,12369C4913,12081 3746,11692 2888,11200C2029,10708 1600,10175 1600,9600L1600,7475C2592,8175 3946,8704 5663,9063C7379,9421 9225,9600 11200,9600ZM11200,19200C13175,19200 15021,19021 16738,18663C18454,18304 19808,17775 20800,17075L20800,19200C20800,19775 20371,20308 19513,20800C18654,21292 17488,21681 16013,21969C14538,22256 12933,22400 11200,22400C9467,22400 7863,22256 6388,21969C4913,21681 3746,21292 2888,20800C2029,20308 1600,19775 1600,19200L1600,17075C2592,17775 3946,18304 5663,18663C7379,19021 9225,19200 11200,19200ZM11200,14400C13175,14400 15021,14221 16738,13863C18454,13504 19808,12975 20800,12275L20800,14400C20800,14975 20371,15508 19513,16000C18654,16492 17488,16881 16013,17169C14538,17456 12933,17600 11200,17600C9467,17600 7863,17456 6388,17169C4913,16881 3746,16492 2888,16000C2029,15508 1600,14975 1600,14400L1600,12275C2592,12975 3946,13504 5663,13863C7379,14221 9225,14400 11200,14400ZM11200,0C12933,0 14538,144 16013,431C17488,719 18654,1108 19513,1600C20371,2092 20800,2625 20800,3200L20800,4800C20800,5375 20371,5908 19513,6400C18654,6892 17488,7281 16013,7569C14538,7856 12933,8000 11200,8000C9467,8000 7863,7856 6388,7569C4913,7281 3746,6892 2888,6400C2029,5908 1600,5375 1600,4800L1600,3200C1600,2625 2029,2092 2888,1600C3746,1108 4913,719 6388,431C7863,144 9467,0 11200,0Z" style="fill:rgb(0,133,189);fill-rule:nonzero;"/>
        </g>
    </g>
</svg>
